<svg width="229" height="124" viewBox="0 0 229 124" fill="none" xmlns="http://www.w3.org/2000/svg">
<path opacity="0.5" d="M228.355 47.7642C228.355 48.6777 227.551 49.416 226.556 49.416C225.562 49.416 224.758 48.6777 224.758 47.7642C224.758 46.8506 225.562 46.1123 226.556 46.1123C227.551 46.1123 228.355 46.8506 228.355 47.7642Z" fill="white"/>
<path opacity="0.5" d="M168.86 61.0795C168.86 61.9931 168.056 62.7314 167.061 62.7314C166.067 62.7314 165.263 61.9931 165.263 61.0795C165.263 60.1659 166.067 59.415 167.061 59.415C168.056 59.4276 168.86 60.1659 168.86 61.0795Z" fill="white"/>
<path opacity="0.5" d="M23.5975 59.4278C23.5975 60.3413 22.7935 61.0796 21.7988 61.0796C20.804 61.0796 20 60.3413 20 59.4278C20 58.5143 20.804 57.776 21.7988 57.776C22.7935 57.7635 23.5975 58.5143 23.5975 59.4278Z" fill="white"/>
<path opacity="0.5" d="M95.8473 0.898438L98.2456 5.366L103.615 6.07931L99.7309 9.55825L100.644 14.4763L95.8473 12.1487L91.037 14.4763L91.95 9.55825L88.0663 6.07931L93.4353 5.366L95.8473 0.898438Z" fill="white"/>
<path opacity="0.2" d="M145.222 73.6528C140.139 73.6528 135.383 74.9293 131.322 77.1569C130.355 64.142 118.554 53.8678 104.15 53.8678C100.635 53.8678 97.2824 54.481 94.2027 55.5947C90.2782 43.5309 78.1093 34.7334 63.6921 34.7334C46.1134 34.7334 31.846 47.8234 31.846 63.9793C31.846 64.3923 31.8597 64.8052 31.8869 65.2057C31.8733 65.2057 31.8597 65.2057 31.846 65.2057C14.2673 65.2057 0 78.2957 0 94.4516C0 110.595 14.2537 123.698 31.846 123.698C32.9498 123.698 34.0264 123.647 35.1029 123.547H142.251C143.232 123.647 144.213 123.698 145.222 123.698C160.266 123.698 172.462 112.497 172.462 98.6814C172.462 84.8531 160.266 73.6528 145.222 73.6528Z" fill="url(#paint0_linear)"/>
<defs>
<linearGradient id="paint0_linear" x1="0.00504195" y1="79.218" x2="172.465" y2="79.218" gradientUnits="userSpaceOnUse">
<stop stop-color="#9CD3CF"/>
<stop offset="0.0888" stop-color="#83C0BC"/>
<stop offset="0.4988" stop-color="#B3CECC"/>
<stop offset="0.816" stop-color="#F5F7FF"/>
<stop offset="1" stop-color="white"/>
</linearGradient>
</defs>
</svg>
