<svg width="209" height="63" viewBox="0 0 209 63" fill="none" xmlns="http://www.w3.org/2000/svg">
<path opacity="0.5" d="M0 47.3042C0 48.2177 0.804 48.9561 1.79877 48.9561C2.79353 48.9561 3.59753 48.2177 3.59753 47.3042C3.59753 46.3907 2.79353 45.6523 1.79877 45.6523C0.804 45.6523 0 46.3907 0 47.3042Z" fill="white"/>
<path opacity="0.5" d="M59.4951 60.6204C59.4951 61.5339 60.2991 62.2722 61.2938 62.2722C62.2886 62.2722 63.0925 61.5339 63.0925 60.6204C63.0925 59.7069 62.2886 58.9561 61.2938 58.9561C60.2991 58.9686 59.4951 59.7069 59.4951 60.6204Z" fill="white"/>
<path opacity="0.5" d="M204.758 58.9687C204.758 59.8824 205.562 60.6208 206.556 60.6208C207.551 60.6208 208.355 59.8824 208.355 58.9687C208.355 58.055 207.551 57.3166 206.556 57.3166C205.562 57.304 204.758 58.055 204.758 58.9687Z" fill="white"/>
<path opacity="0.5" d="M132.508 0.438477L130.11 4.90588L124.741 5.61916L128.624 9.09797L127.711 14.0159L132.508 11.6883L137.318 14.0159L136.405 9.09797L140.289 5.61916L134.92 4.90588L132.508 0.438477Z" fill="white"/>
</svg>
